<svg id="Layer_1" data-name="Layer 1" xmlns="http://www.w3.org/2000/svg" viewBox="0 0 511.9 56.96"><defs><style>.cls-1{fill:#4f4f4f;}.cls-2{fill:#0982af;}.cls-3{fill:#8a969a;}.cls-4{fill:#b5d234;}</style></defs><path class="cls-1" d="M95.27,31h-4.1v9.38h-4.9V16h9c5.88,0,8.82,3.32,8.82,7.56C104.09,27.25,101.57,31,95.27,31Zm-.21-4c2.76,0,4-1.36,4-3.53S97.82,20,95.06,20H91.17v7.1Z"/><path class="cls-1" d="M106.88,16h17.93v3.95H118.3V40.41h-4.91V19.93h-6.51Z"/><path class="cls-1" d="M147.13,16C153,16,156,19.37,156,23.47a7.06,7.06,0,0,1-5.57,7l5.85,9.91h-5.68l-5.39-9.52h-2.31v9.52H138V16ZM147,20h-4.1v7.17H147c2.73,0,3.95-1.43,3.95-3.64S149.69,20,147,20Z"/><path class="cls-1" d="M169.5,40.73c-5.64,0-9.73-3.92-9.73-10s4-10,9.73-10,9.55,3.82,9.55,9.59a11.93,11.93,0,0,1-.13,1.89H164.74a4.53,4.53,0,0,0,4.65,4.49,4,4,0,0,0,3.89-2.35h5.29A9,9,0,0,1,169.5,40.73Zm-4.73-11.84H174a4.31,4.31,0,0,0-4.62-4.16A4.5,4.5,0,0,0,164.77,28.89Z"/><path class="cls-1" d="M186.44,21l4.9,14.87L196.24,21h5.21l-7.17,19.39h-5.95L181.19,21Z"/><path class="cls-1" d="M204.32,15.84a3,3,0,1,1,3,2.87A2.87,2.87,0,0,1,204.32,15.84Zm.53,5.18h4.9V40.41h-4.9Z"/><path class="cls-1" d="M234.7,40.41H224.17V16h10.08c5.11,0,7.94,2.66,7.94,6.3a5.63,5.63,0,0,1-4.16,5.6,5.92,5.92,0,0,1,4.72,5.92C242.75,37.68,239.78,40.41,234.7,40.41Zm-1.15-20.48h-4.48v6.13h4.48c2.31,0,3.64-1,3.64-3S235.86,19.93,233.55,19.93Zm.35,9.91h-4.83v6.58H234c2.38,0,3.78-1.16,3.78-3.22S236.28,29.84,233.9,29.84Z"/><path class="cls-1" d="M255.77,40.73c-5.63,0-9.73-3.92-9.73-10s4-10,9.73-10,9.56,3.82,9.56,9.59a11.94,11.94,0,0,1-.14,1.89H251a4.55,4.55,0,0,0,4.66,4.49,4,4,0,0,0,3.88-2.35h5.29A9,9,0,0,1,255.77,40.73Zm-4.72-11.84h9.2a4.31,4.31,0,0,0-4.62-4.16A4.49,4.49,0,0,0,251.05,28.89Z"/><path class="cls-1" d="M274.43,40.41h-4.9V21h4.9v3a6.7,6.7,0,0,1,5.95-3.29v5.14h-1.3c-2.9,0-4.65,1.12-4.65,4.87Z"/><path class="cls-1" d="M284.3,14.51h4.9V29.24L295.71,21h6.37l-8.54,9.73,8.61,9.66h-6.37l-6.58-8.26v8.26h-4.9Z"/><path class="cls-1" d="M313,20.7a7.68,7.68,0,0,1,6.41,3.08V21h4.93V40.41h-4.93V37.58a7.65,7.65,0,0,1-6.44,3.15c-4.9,0-8.82-4-8.82-10.09S308,20.7,313,20.7ZM314.22,25c-2.62,0-5.11,2-5.11,5.63s2.49,5.78,5.11,5.78,5.15-2,5.15-5.71S316.92,25,314.22,25Z"/><path class="cls-1" d="M329.73,14.51h4.9v8.92a7.46,7.46,0,0,1,6-2.69c4.37,0,7.56,2.94,7.56,8.29V40.41h-4.9V29.7c0-3.12-1.72-4.8-4.31-4.8s-4.37,1.68-4.37,4.8V40.41h-4.9Z"/><path class="cls-1" d="M362.45,16H368l7.77,18.16L383.56,16h5.53V40.41h-4.9V24.52l-6.55,15.89h-3.71l-6.58-15.89V40.41h-4.9Z"/><path class="cls-1" d="M402.14,20.7a7.68,7.68,0,0,1,6.41,3.08V21h4.93V40.41h-4.93V37.58a7.65,7.65,0,0,1-6.44,3.15c-4.9,0-8.82-4-8.82-10.09S397.21,20.7,402.14,20.7ZM403.4,25c-2.62,0-5.11,2-5.11,5.63s2.49,5.78,5.11,5.78,5.15-2,5.15-5.71S406.1,25,403.4,25Z"/><path class="cls-1" d="M418.9,14.51h4.9V29.24L430.32,21h6.37l-8.54,9.73,8.61,9.66h-6.37l-6.59-8.26v8.26h-4.9Z"/><path class="cls-1" d="M467.1,29.7c0-3.08-1.71-4.69-4.3-4.69s-4.34,1.61-4.34,4.69V40.41h-4.9V29.7c0-3.08-1.72-4.69-4.31-4.69s-4.38,1.61-4.38,4.69V40.41H440V21h4.9v2.34a7.08,7.08,0,0,1,5.71-2.62,7.42,7.42,0,0,1,6.83,3.71,7.66,7.66,0,0,1,6.65-3.71c4.65,0,7.94,2.94,7.94,8.29V40.41h-4.9Z"/><path class="cls-1" d="M495.59,40.41h-4.93V38a7.15,7.15,0,0,1-5.78,2.7c-4.52,0-7.77-2.94-7.77-8.27V21H482V31.69c0,3.12,1.71,4.8,4.31,4.8s4.34-1.68,4.34-4.8V21h4.93Z"/><path class="cls-1" d="M506,40.41h-4.9V21H506v3a6.7,6.7,0,0,1,5.95-3.29v5.14h-1.29c-2.91,0-4.66,1.12-4.66,4.87Z"/><path class="cls-2" d="M41.26,34.54,39.2,28.69v-.08h0L33.79,13.36a5,5,0,0,0-4.95-5h-11a5,5,0,0,0-5,5V28.61H7.92A7.93,7.93,0,0,0,0,36.53v7.36a9.12,9.12,0,0,1,15.1,6.9A9.54,9.54,0,0,1,15,52.11a4.92,4.92,0,0,0,2.81.87h5A11,11,0,0,1,41.3,41.33C41.26,35,41.26,35.44,41.26,34.54Zm-8.75-1.6H19.43a2,2,0,0,1-2-2V13.08H29.3l5.51,16.66A2.43,2.43,0,0,1,32.51,32.94Z"/><path class="cls-3" d="M32.65,39.83a8.57,8.57,0,1,0,8.56,8.56A8.56,8.56,0,0,0,32.65,39.83Zm0,13.27a4.71,4.71,0,1,1,4.7-4.71A4.71,4.71,0,0,1,32.65,53.1Z"/><path class="cls-3" d="M6.37,44.3a6.33,6.33,0,1,0,6.33,6.33A6.32,6.32,0,0,0,6.37,44.3Zm0,9A2.66,2.66,0,1,1,9,50.63,2.66,2.66,0,0,1,6.37,53.29Z"/><path class="cls-4" d="M48.22,50.63V0h-4.7V53a2,2,0,0,0,2,2h12.9l5.08-2V50.63Z"/></svg>